<?xml version="1.0" encoding="utf-8"?>
<!-- Generator: Adobe Illustrator 16.0.0, SVG Export Plug-In . SVG Version: 6.00 Build 0)  -->
<!DOCTYPE svg PUBLIC "-//W3C//DTD SVG 1.1//EN" "http://www.w3.org/Graphics/SVG/1.1/DTD/svg11.dtd">
<svg version="1.1" id="Capa_1" xmlns="http://www.w3.org/2000/svg" xmlns:xlink="http://www.w3.org/1999/xlink" x="0px" y="0px"
	 width="673.465px" height="586.469px" viewBox="0 0 673.465 586.469" enable-background="new 0 0 673.465 586.469"
	 xml:space="preserve">
<ellipse fill="#008300" cx="350.398" cy="247.774" rx="235.479" ry="190.039"/>
<rect x="99.005" y="392.734" fill="#008300" width="502.785" height="62.698"/>
<polygon fill="#E30613" stroke="#1D1D1B" stroke-width="3" stroke-miterlimit="10" points="256.832,296.295 281.76,296.295 
	284.942,296.295 291.307,365.592 250.998,365.592 "/>
<polygon fill="#FFFFFF" stroke="#1D1D1B" stroke-width="3" stroke-miterlimit="10" points="329.116,276.071 285.504,451.815 
	271.152,451.815 285.504,365.32 290.473,365.214 283.849,298.874 290.473,290.914 295.442,284.978 295.993,279.042 296.546,273.104 
	329.116,273.104 "/>
<polygon fill="#E30613" stroke="#1D1D1B" stroke-width="3" stroke-miterlimit="10" points="431.747,192.788 410.531,192.788 
	403.636,235.586 408.94,239.234 412.122,244.766 412.653,252.192 411.063,256.634 408.41,262.269 403.636,264.391 400.454,268.316 
	397.271,268.316 393.559,268.316 390.907,292.098 445.007,289.85 "/>
<ellipse fill="#1D1D1B" stroke="#1D1D1B" stroke-width="3" stroke-miterlimit="10" cx="334.154" cy="118.079" rx="30.763" ry="24.398"/>
<ellipse fill="#FFFFFF" stroke="#1D1D1B" stroke-width="3" stroke-miterlimit="10" cx="334.574" cy="122.833" rx="30.344" ry="19.644"/>
<polygon fill="#FFFFFF" stroke="#1D1D1B" stroke-width="3" stroke-miterlimit="10" points="341.813,143.477 323.425,143.477 
	318.475,160.095 300.795,167.875 259.071,185.553 233.612,290.215 256.949,303.654 259.777,294.459 254.12,288.803 249.877,285.266 
	247.755,280.316 248.463,273.104 249.169,268.293 252.706,265.465 256.949,262.635 262.607,259.101 272.494,255.565 
	262.607,209.597 275.336,256.271 281.701,256.98 287.712,259.807 293.722,261.929 298.673,268.293 301.502,273.104 305.391,273.104 
	392.024,273.104 382.123,269 377.879,264.756 377.879,259.101 379.294,253.443 380.708,249.201 383.538,245.664 387.781,242.128 
	392.024,240.007 398.389,240.007 401.923,240.007 405.459,240.007 411.824,196.162 406.875,190.503 399.801,182.725 
	389.194,178.482 377.173,173.531 366.917,170.703 358.786,167.875 351.005,165.753 "/>
<ellipse fill="#FFFFFF" stroke="#1D1D1B" stroke-width="3" stroke-miterlimit="10" cx="272.625" cy="277.032" rx="26.873" ry="18.81"/>
<path fill="#1D1D1B" stroke="#1D1D1B" stroke-width="3" stroke-miterlimit="10" d="M300.498,276.34
	c-1.817-24.445-71.824,19.758-26.872,19.758c-14.842,0-26.874-8.846-26.874-19.758c0-10.915,12.032-19.759,26.874-19.759
	C288.467,256.582,299.69,265.458,300.498,276.34z"/>
<ellipse fill="#FFFFFF" stroke="#1D1D1B" stroke-width="3" stroke-miterlimit="10" cx="393.207" cy="254.374" rx="20.154" ry="18.851"/>
<path fill="#1D1D1B" stroke="#1D1D1B" stroke-width="3" stroke-miterlimit="10" d="M382.446,239.174
	c-12.175,12.547,33.006,21.103,25.86,1.702c3.565,9.684,7.146,19.4-0.465,27.094c-7.607,7.692-19.733,8.035-27.088,0.765
	C373.404,261.464,374.922,246.926,382.446,239.174z"/>
<ellipse fill="#E30613" stroke="#1D1D1B" stroke-width="3" stroke-miterlimit="10" cx="423.026" cy="172.476" rx="24.396" ry="18.829"/>
<polygon fill="#FFFFFF" stroke="#1D1D1B" stroke-width="3" stroke-miterlimit="10" points="390.248,292.709 444.907,289.41 
	469.183,408.541 373.256,411.232 "/>
<rect x="421.219" y="207.954" fill="#E30613" stroke="#E30613" stroke-width="3" stroke-miterlimit="10" width="7.956" height="11.668"/>
<ellipse transform="matrix(0.5285 0.849 -0.849 0.5285 344.4584 -263.7225)" fill="#FFFFFF" stroke="#1D1D1B" stroke-width="3" stroke-miterlimit="10" cx="409.632" cy="178.22" rx="15.535" ry="7.188"/>
<polygon fill="#FFFFFF" stroke="#1D1D1B" stroke-width="3" stroke-miterlimit="10" points="424.371,410.913 448.768,410.913 
	451.42,410.913 443.995,432.336 442.404,449.594 437.896,449.594 421.188,410.913 "/>
<polygon fill="#FFFFFF" stroke="#1D1D1B" stroke-width="3" stroke-miterlimit="10" points="390.273,412.068 392.997,449.677 
	400.125,449.62 402.246,449.603 414.449,411.878 "/>
<polygon fill="#FFFFFF" stroke="#1D1D1B" stroke-width="3" stroke-miterlimit="10" points="331.326,273.971 371.106,449.594 
	391.791,449.594 391.791,407.422 375.879,407.422 372.167,407.422 394.973,298.467 394.973,273.971 "/>
<polygon fill="#FFFFFF" stroke="#1D1D1B" stroke-width="3" stroke-miterlimit="10" points="287.594,366.877 270.622,451.815 
	254.18,451.815 254.18,365.734 "/>
<rect x="251.482" y="365.576" transform="matrix(-0.2529 -0.9675 0.9675 -0.2529 -20.8843 721.3906)" fill="#FFFFFF" stroke="#1D1D1B" stroke-width="2" stroke-miterlimit="10" width="33.21" height="6.365"/>
<g id="Capa_5">
	<g>
		<g>
			<path stroke="#000000" stroke-miterlimit="10" d="M124.64,351.57c1.526,0.396,2.958,1.052,4.284,1.959
				c1.618,1.107,2.816,2.457,3.608,4.055c1.519,3.064,2.179,5.591,1.919,7.639c-0.549,4.323-3.449,8.066-8.887,11.127
				c-0.521,0.293-1.314,0.698-2.38,1.215c-1.066,0.518-1.859,0.92-2.38,1.213c-0.414,0.232-1.041,0.566-1.878,1.005
				c-0.837,0.437-1.464,0.772-1.878,1.006c-0.85,0.479-1.761,0.742-2.726,0.778c-1.281,0.053-2.188-0.394-2.694-1.318
				c-0.398-0.729-0.545-1.482-0.465-2.24c0.086-0.818,0.444-1.408,1.087-1.751c0.612-0.323,1.542-0.809,2.791-1.444
				c1.249-0.64,2.184-1.123,2.806-1.453c0.515-0.273,1.31-0.654,2.383-1.146c1.074-0.487,1.868-0.873,2.382-1.146
				c1.661-0.885,3.083-1.939,4.276-3.133c1.422-1.422,2.228-2.803,2.4-4.14c0.089-0.694-0.355-2.016-1.291-3.963
				c-1.562-3.254-5.097-4.257-10.753-3.088c-2.929,0.604-6.802,1.981-11.603,4.167c-0.632,0.288-1.35,0.348-2.133,0.163
				c-1.05-0.248-1.84-0.953-2.338-2.089c-0.408-0.928-0.415-1.756-0.052-2.461c0.271-0.528,0.663-0.909,1.176-1.129
				c4.507-1.926,8.133-3.172,10.854-3.778C117.34,350.68,121.179,350.672,124.64,351.57z"/>
			<path stroke="#000000" stroke-miterlimit="10" d="M110.045,315.118c0.599-0.164,1.575-0.312,2.925-0.451
				c1.612-0.167,2.638,0.545,3.1,2.144c0.256,0.889,0.08,2.023-0.52,3.426c-2.631,6.143-11.311,22.888-11.311,22.888
				c0.149,0.172,4.91-1.733,5.593-1.996c0.916-0.351,2.287-0.896,4.113-1.646c1.826-0.748,3.198-1.295,4.114-1.644
				c3.42-1.303,5.464-1.063,6.166,0.716c0.355,0.9,0.388,1.728,0.09,2.479c-0.264,0.668-0.722,1.137-1.377,1.403
				c-0.459,0.188-1.171,0.438-2.135,0.733c-0.964,0.297-1.675,0.536-2.135,0.724c-0.678,0.276-1.705,0.668-3.082,1.17
				c-1.376,0.5-2.404,0.89-3.083,1.164c-0.724,0.295-1.809,0.756-3.252,1.392c-1.443,0.634-2.525,1.101-3.249,1.396
				c-0.689,0.28-1.686,0.778-2.987,1.5c-1.3,0.721-2.295,1.227-2.984,1.508c-0.689,0.281-1.447,0.181-2.276-0.313
				c-0.828-0.49-1.424-1.195-1.785-2.111c-0.404-1.025-0.109-2.459,0.906-4.264c5.133-9.107,12.524-24.35,12.524-24.35
				c-0.026-0.028-1.289,0.363-2.716,0.789c-5.862,1.746-9.813,2.983-11.799,3.74c-0.335,0.129-0.957,0.412-1.847,0.848
				c-0.789,0.388-1.421,0.66-1.896,0.804c-1.64,0.493-2.777-0.296-3.374-2.369c-0.667-2.313,2.034-4.298,8.053-5.944
				c0.132-0.037,1.083-0.283,2.848-0.74C104.766,316.532,108.562,315.525,110.045,315.118z"/>
			<path stroke="#000000" stroke-miterlimit="10" d="M88.301,298.342c0.127,0.678,0.056,5.221,0.598,5.657
				c0.508,0.409,5.264-0.806,8.966-1.589c3.272-0.686,4.908-1.026,8.18-1.711c-0.407-1.741-0.784-3.525-1.128-5.348
				c-0.15-0.791-0.026-1.496,0.368-2.104c0.394-0.608,0.935-0.97,1.619-1.09c0.684-0.122,1.313,0.038,1.891,0.475
				s0.938,1.048,1.088,1.841c0.14,0.74,0.37,1.85,0.701,3.318c0.331,1.471,0.584,2.572,0.745,3.309
				c0.189,0.869,0.583,2.148,1.201,3.828c0.618,1.682,1.045,2.948,1.263,3.812c0.197,0.782,0.128,1.489-0.211,2.131
				s-0.845,1.05-1.517,1.229c-0.672,0.178-1.319,0.059-1.942-0.365c-0.623-0.422-1.042-1.053-1.253-1.891
				c-0.238-0.945-0.785-3.473-1.183-3.683c-0.425-0.226-4.146,1.019-8.18,1.968c-3.285,0.771-6.451,1.376-9.501,1.794
				c0.471,1.816,0.713,2.728,1.216,4.534c0.211,0.839,0.158,1.598-0.162,2.286s-0.826,1.129-1.522,1.313
				c-0.708,0.188-1.358,0.063-1.944-0.369c-0.541-0.4-0.938-0.967-1.186-1.695c-0.405-1.188-0.983-3.29-1.673-6.313
				c-0.62-2.718-1.132-6.287-1.42-10.678c-0.115-1.747,0.582-2.753,2.06-3.018c0.782-0.139,1.458,0.084,2.027,0.648
				C87.87,297.1,88.174,297.667,88.301,298.342z"/>
			<path stroke="#000000" stroke-miterlimit="10" d="M108.568,285.175c-0.074,0.568-0.045,1.45-0.447,2.048
				c-0.401,0.596-0.943,0.95-1.629,1.063c-1.225,0.197-3.072,0.435-5.542,0.701c-2.47,0.268-4.319,0.496-5.544,0.692
				c-1.36,0.218-3.393,0.575-6.103,1.075c-2.709,0.499-4.746,0.859-6.105,1.078c-0.674,0.107-1.405-0.161-2.193-0.822
				c-0.788-0.66-1.248-1.433-1.376-2.304c-0.07-0.479,0.124-1.752,0.635-3.771c0.598-2.358,0.967-3.753,1.031-4.183
				c0.641-4.342,2.156-8.13,4.384-11.256c2.657-3.727,5.82-5.618,9.375-5.828c2.143-0.126,4.216,0.345,6.218,1.338
				c2.031,1.008,3.73,2.427,5.081,4.259c1.516,2.056,2.462,5.01,2.937,8.902c0.115,0.944,0.127,2.048,0.033,3.309
				C109.205,283.007,108.665,284.435,108.568,285.175z M88.143,276.204c-0.606,1.44-1.493,4.493-2.477,9.243
				c7.301-1.012,10.951-1.518,18.25-2.529c0.236-0.558,0.388-1.18,0.454-1.867c0.066-0.687,0.049-1.437-0.051-2.255
				c-0.348-2.85-0.923-4.859-1.785-6.034c-0.817-1.113-1.859-1.969-3.131-2.571s-2.561-0.857-3.872-0.75
				C92.465,269.691,89.954,271.906,88.143,276.204z"/>
			<path stroke="#000000" stroke-miterlimit="10" d="M106.782,246.381c-0.032,3.856-1.025,7.144-3.047,9.951
				c-2.161,3-4.997,4.649-8.578,4.826c-4.213,0.208-8.14-1.066-11.71-3.989c-4.012-3.285-6.054-7.686-5.972-12.979
				c0.078-5.088,1.262-8.867,3.387-11.26c2.125-2.393,5.197-3.407,9.17-3.126c4.208,0.298,7.915,1.928,11.189,4.725
				C105.002,237.759,106.822,241.639,106.782,246.381z M82.519,244.268c-0.049,3.192,1.306,5.94,4.017,8.143
				c2.538,2.062,5.35,3.012,8.4,2.93c2.059-0.055,3.706-0.978,4.967-2.727c1.213-1.681,1.815-3.761,1.836-6.274
				c0.024-2.925-1.255-5.381-3.851-7.467c-2.374-1.907-5.099-2.985-8.21-3.135c-2.603-0.125-4.45,0.448-5.518,1.743
				C83.141,238.718,82.569,240.991,82.519,244.268z"/>
			<path stroke="#000000" stroke-miterlimit="10" d="M108.574,218.698c-0.399,3.288-1.357,5.805-2.915,7.591
				c-1.306,1.498-2.709,2.216-4.23,2.095c-0.779-0.062-1.406-0.367-1.877-0.919c-0.471-0.552-0.667-1.282-0.585-2.183
				c0.11-1.21,0.772-2.042,1.96-2.489c1.593-0.6,2.524-2.227,2.849-4.879c0.278-2.27,0.112-4.523-0.485-6.789
				c-0.618-2.345-1.461-3.635-2.588-3.819c-1.543-0.251-2.673,0.289-3.383,1.616c-0.506,0.946-1.03,2.935-1.488,5.963
				c-0.355,2.35-0.999,4.418-1.951,6.215c-1.287,2.429-2.872,3.558-4.779,3.347c-2.399-0.266-4.494-1.92-6.184-5.067
				s-2.289-6.55-1.777-10.107c0.203-1.412,0.739-3.115,1.628-5.088c1.105-2.452,2.13-3.58,3.021-3.42
				c0.635,0.113,1.151,0.472,1.552,1.061c0.447,0.659,0.602,1.429,0.454,2.314c-0.11,0.661-0.396,1.63-0.846,2.91
				c-0.45,1.28-0.722,2.265-0.817,2.942c-0.255,1.818-0.092,3.616,0.449,5.342c0.558,1.781,1.293,2.725,2.192,2.828
				c0.469,0.054,0.882-0.158,1.244-0.631c0.362-0.473,0.708-1.235,0.915-2.205c0.36-1.689,0.625-3.54,0.981-5.264
				c0.625-3.017,1.835-5.345,3.464-6.868c1.799-1.682,4.016-2.254,6.602-1.77c3.146,0.59,5.148,2.975,6.151,7.054
				C108.894,211.584,109.027,214.97,108.574,218.698z"/>
			<path stroke="#000000" stroke-miterlimit="10" d="M106.18,174.158c-0.067,0.224-0.7,1.444-0.618,1.623
				c0.2,0.438,4.372,1.41,8.182,2.527c0.631,0.185,1.103,0.58,1.419,1.18c0.317,0.601,0.374,1.259,0.17,1.98
				c-0.204,0.721-0.596,1.256-1.181,1.608c-0.585,0.352-1.195,0.445-1.83,0.273c-2.005-0.542-3.008-0.814-5.013-1.356
				c-1.856-0.502-4.575-1.387-8.136-2.636c-3.617-1.269-6.351-2.163-8.164-2.671c-3.101-0.87-3.967-2.528-3.601-4.327
				c0.088-0.431,0.14-1.201,0.336-2.064c0.196-0.863,0.478-1.902,0.851-3.115c0.849-2.764,2.444-5.121,4.747-6.994
				c2.562-2.084,5.063-2.654,7.447-1.803c2.991,1.068,4.879,3.279,5.741,6.549C107.295,167.827,107.166,170.882,106.18,174.158z
				 M93.04,169.068c-0.136,0.444-0.25,0.836-0.346,1.178c-0.096,0.342-0.25,0.818-0.213,0.878c0.1,0.164,1.401,0.418,2.509,0.767
				c1.308,0.412,5.354,2.504,6.061,2.214c0.209-0.085,0.481-1.096,0.55-1.325c0.629-2.09,0.739-3.955,0.313-5.619
				c-0.455-1.775-1.435-2.929-2.965-3.439c-1-0.333-2.126,0.073-3.364,1.231C94.391,166.069,93.535,167.446,93.04,169.068z"/>
			<path stroke="#000000" stroke-miterlimit="10" d="M127.164,150.316c-1.563,3.595-3.777,6.275-6.748,8.103
				c-3.174,1.953-6.432,2.377-9.799,1.143c-3.96-1.453-7.076-4.171-9.208-8.291c-2.396-4.629-2.532-9.536-0.35-14.458
				c2.098-4.732,4.703-7.819,7.62-9.236s6.153-1.171,9.698,0.646c3.754,1.924,6.508,4.906,8.4,8.813
				C128.962,141.544,129.085,145.895,127.164,150.316z M105.67,138.855c-1.316,2.969-1.158,6.067,0.465,9.183
				c1.519,2.917,3.732,4.898,6.573,6.015c1.917,0.753,3.798,0.54,5.652-0.601c1.783-1.095,3.158-2.805,4.176-5.147
				c1.186-2.727,0.991-5.53-0.565-8.5c-1.422-2.716-3.5-4.791-6.304-6.147c-2.346-1.135-4.276-1.319-5.777-0.521
				C108.458,133.898,107.022,135.807,105.67,138.855z"/>
			<path stroke="#000000" stroke-miterlimit="10" d="M145.024,114.945c-0.395,0.615-0.975,1.04-1.741,1.278
				c-5.167,1.604-13.382,7.561-13.3,8.051c0.115,0.688,5.014,2.537,5.361,2.73c0.618,0.345,1.006,0.873,1.174,1.581
				s0.062,1.413-0.322,2.119c-0.384,0.706-0.916,1.179-1.601,1.422c-0.685,0.244-1.34,0.202-1.965-0.129
				c-0.823-0.435-2.048-1.096-3.675-1.988c-1.627-0.892-2.852-1.555-3.675-1.99c-5.302-2.824-7.954-4.235-13.255-7.061
				c-0.713-0.377-1.231-0.979-1.533-1.798c-0.39-1.061-0.216-2.18,0.505-3.32c1.949-3.079,3-4.641,3.054-4.712
				c1.238-1.662,2.504-3.042,3.787-3.981c5.579-4.084,10.108-4.9,13.417-2.75c1.363,0.886,2.212,2.21,2.575,3.957
				c0.363,1.747-0.341,6.503-0.341,6.503c0.259,0.182,6.592-3.539,9.2-4.042c0.679-0.131,1.273-0.029,1.781,0.306
				c0.581,0.382,0.919,0.952,1.027,1.706S145.449,114.284,145.024,114.945z M117.962,114.447c-0.067,0.096-0.542,0.818-1.399,2.177
				c3.452,1.925,5.179,2.888,8.631,4.813c0.184-0.304,0.34-0.573,0.473-0.808c1.704-3.029,2.696-5.441,2.922-7.272
				c0.098-0.79,0.083-1.586-0.052-2.387c-0.135-0.8-0.317-1.271-0.549-1.417c-1.182-0.729-2.875-0.563-5.047,0.556
				C120.881,111.172,119.216,112.661,117.962,114.447z"/>
		</g>
	</g>
</g>
<g id="Capa_3">
	<g>
		<g>
			<path stroke="#000000" stroke-miterlimit="10" d="M220.434,71.267c-1.118,1.26-3.041,2.835-5.704,4.78
				c-2.437,1.78-4.481,3.149-6.162,4.069c-2.841,1.553-6.214-1.097-6.214-1.097s-0.75-1.583-2.544-5.309
				c-2.332-4.84-5.1-10.13-8.328-15.854c-0.346-0.613-0.391-1.276-0.131-1.988c0.26-0.711,0.772-1.28,1.538-1.703
				c0.766-0.423,1.524-0.555,2.27-0.398c0.746,0.157,1.284,0.547,1.619,1.167c3.127,5.794,6.045,11.306,8.157,16.275
				c0.378,0.891,1.445,4.05,1.828,4.174c0.802,0.259,6.031-4.102,9.898-7.551c0.24-0.214,0.487-0.383,0.741-0.507
				c0.762-0.373,1.505-0.415,2.222-0.131c0.642,0.254,1.099,0.665,1.371,1.234C221.451,69.387,221.26,70.336,220.434,71.267z"/>
			<path stroke="#000000" stroke-miterlimit="10" d="M245.118,61.975c-0.978,0.333-2.355-0.384-4.166-2.083
				c-1.173-1.101-2.984-3.897-3.55-4.016c-0.333-0.07-2.341,1.228-4.369,2.228c-1.907,0.94-4.016,1.847-4.302,2.362
				c-0.383,0.691-0.085,3.925-0.441,6.905c-0.122,1.015-0.711,1.784-1.644,2.212c-0.658,0.302-1.345,0.367-2.067,0.194
				c-0.723-0.174-1.239-0.583-1.544-1.231c-0.268-0.57,0.835-5.056-0.038-7.053c-0.092-0.211-0.558-0.561-0.67-0.875
				c-0.2-0.558,0.818-1.369,1.226-2.087c1.13-1.992,1.237-7.335,2.201-11.292c1.384-5.683,2.584-8.688,3.354-8.997
				c1.46-0.589,2.858-0.194,3.831,1.126c0.762,1.036,1.881,2.832,3.399,5.058c2.049,3.004,4.485,6.484,7.209,10.317
				c0.207,0.291,0.822,0.932,1.813,1.932c0.818,0.825,1.316,1.494,1.5,1.992c0.249,0.672,0.188,1.334-0.177,1.984
				C246.318,61.302,245.797,61.742,245.118,61.975z M231.116,47.066c-0.154,0.033-1.501,7.955-1.501,7.955
				c0.041,0.026,1.359-0.818,2.529-1.383c1.379-0.666,2.575-1.205,2.594-1.282C234.84,51.931,231.116,47.066,231.116,47.066z"/>
			<path stroke="#000000" stroke-miterlimit="10" d="M276.982,52.432c-3.181,0.821-5.858,0.835-8.068,0.026
				c-1.854-0.679-3.02-1.729-3.449-3.186c-0.22-0.747-0.162-1.438,0.18-2.071c0.342-0.634,0.944-1.075,1.804-1.319
				c1.154-0.329,2.155-0.011,2.994,0.932c1.125,1.264,2.964,1.546,5.522,0.888c2.189-0.563,4.199-1.539,6.054-2.919
				c1.92-1.429,2.784-2.684,2.536-3.793c-0.339-1.519-1.245-2.368-2.714-2.539c-1.048-0.122-3.053,0.121-5.985,0.791
				c-2.276,0.52-4.4,0.665-6.388,0.423c-2.688-0.327-4.289-1.399-4.776-3.247c-0.614-2.324,0.154-4.853,2.408-7.542
				s5.116-4.462,8.513-5.274c1.348-0.322,3.08-0.441,5.182-0.339c2.613,0.127,4.005,0.655,4.19,1.538
				c0.132,0.629,0,1.237-0.384,1.824c-0.429,0.656-1.068,1.083-1.922,1.27c-0.638,0.14-1.616,0.229-2.938,0.279
				c-1.323,0.05-2.313,0.155-2.96,0.312c-1.74,0.422-3.31,1.223-4.684,2.344c-1.417,1.156-2.012,2.175-1.781,3.047
				c0.12,0.454,0.461,0.763,1.023,0.928c0.562,0.166,1.382,0.214,2.341,0.057c1.669-0.274,3.45-0.699,5.147-0.996
				c2.97-0.519,5.522-0.255,7.504,0.688c2.189,1.042,3.531,2.875,4.052,5.441c0.634,3.123-0.79,5.862-4.159,8.293
				C283.657,50.137,280.588,51.501,276.982,52.432z"/>
			<path stroke="#000000" stroke-miterlimit="10" d="M311.023,20.626c-0.277,0.035-0.571,0.036-0.886,0.002
				c-2.307-0.251-4.531-0.212-6.646,0.105c-1.037,0.156-2.138,0.402-3.301,0.739c-1.164,0.337-3.446,0.881-3.671,1.288
				c-0.297,0.536,0.565,6.899,1.066,7.243c0.163,0.111,3.33-0.871,7.793-1.943c2.545-0.612,4.172-0.944,4.863-1.035
				c0.799-0.105,1.514,0.037,2.139,0.425c0.626,0.388,0.983,0.966,1.076,1.726c0.179,1.459-0.599,2.435-2.237,2.804
				c-1.026,0.232-2.663,0.529-4.724,1.027c-1.844,0.446-7.747,1.139-8.397,2.078c-0.306,0.441,0.351,2.817,0.517,3.767
				c0.418,2.385,0.804,3.714,1.157,3.992c0.169,0.134,0.994,0.069,2.476-0.175c0.799-0.132,2-0.347,3.609-0.63
				c1.608-0.283,2.814-0.475,3.617-0.588c0.261-0.036,0.638-0.125,1.132-0.267c0.492-0.143,0.863-0.229,1.109-0.261
				c0.751-0.1,1.419,0.024,2,0.357c0.66,0.378,1.046,0.977,1.147,1.798c0.169,1.373-0.479,2.283-1.934,2.749
				c-1.241,0.398-3.865,0.861-7.863,1.493c-4.136,0.654-6.917,0.622-8.374-0.212c-1.604-0.918-2.797-3.329-3.557-7.246
				c-0.315-1.625-0.662-4.091-1.029-7.397c-0.367-3.307-0.7-5.767-1.008-7.38c-0.081-0.424-0.269-1.041-0.565-1.845
				c-0.297-0.804-0.487-1.42-0.569-1.845c-0.355-1.844,0.441-2.957,2.395-3.314c0.614-0.112,1.396,0.155,1.778,0.148
				c1.068-0.019,3.053-1.166,4.488-1.582s2.808-0.721,4.113-0.917c3.539-0.531,6.428-0.541,8.633-0.096
				c1.342,0.271,2.08,0.975,2.212,2.104c0.075,0.638-0.117,1.233-0.549,1.782C312.548,20.142,311.878,20.518,311.023,20.626z"/>
			<path stroke="#000000" stroke-miterlimit="10" d="M342.709,31.052c-1.332,1.943-2.508,6.713-5.075,9.036
				c-2.596,2.348-5.665,3.638-9.261,3.919c-3.406,0.267-6.031-0.343-7.925-1.89c-1.896-1.547-3.06-4.032-3.447-7.481
				c-0.354-3.142,0.111-6.463,1.483-9.948c1.373-3.484,3.357-6.389,5.96-8.674c1.822-1.603,3.88-2.482,6.125-2.627
				c1.369-0.088,3.262,0.231,5.651,0.984c2.833,0.892,4.251,1.946,4.292,3.107c0.023,0.667-0.239,1.271-0.79,1.817
				c-0.548,0.545-1.231,0.834-2.063,0.871c-0.414,0.018-1.344-0.29-2.802-0.913s-2.785-0.894-3.968-0.817
				c-1.251,0.081-2.864,1.394-4.774,3.948c-2.779,3.717-3.906,7.626-3.523,11.672c0.194,2.054,0.648,3.422,1.356,4.099
				c0.746,0.713,2.088,0.979,4.026,0.829c1.992-0.156,3.705-0.811,5.159-1.975c1.54-1.232,3.399-5.075,3.332-5.156
				c-0.319-0.384-5.738,1.136-7.935,2.258c-0.396,0.203-0.8,0.321-1.21,0.354c-0.819,0.065-1.522-0.166-2.114-0.682
				c-0.53-0.462-0.829-1.011-0.885-1.651c-0.167-1.883,2.142-3.448,6.978-4.513c2.727-0.6,5.942-0.981,9.626-1.107
				c0.813-0.028,1.502,0.192,2.063,0.659c0.561,0.467,0.849,1.053,0.866,1.757C343.88,29.828,343.037,30.575,342.709,31.052z"/>
			<path stroke="#000000" stroke-miterlimit="10" d="M366.583,38.974c-1.007,1.175-2.193,2.146-3.551,2.906
				c-1.656,0.928-3.331,1.372-5.037,1.336c-3.271-0.068-5.694-0.665-7.298-1.848c-3.392-2.5-5.212-6.813-5.339-13.025
				c-0.014-0.594,0.003-1.48,0.048-2.658c0.045-1.178,0.061-2.064,0.049-2.659c-0.01-0.473-0.011-1.181-0.001-2.121
				s0.01-1.647,0.001-2.121c-0.02-0.97,0.163-1.894,0.556-2.759c0.521-1.148,1.286-1.733,2.271-1.743
				c0.771-0.008,1.459,0.214,2.049,0.638c0.639,0.458,0.97,1.048,0.971,1.774c0.001,0.689-0.009,1.732-0.025,3.128
				c-0.02,1.396-0.027,2.446-0.026,3.146c0.001,0.58-0.032,1.457-0.098,2.629c-0.065,1.173-0.099,2.051-0.098,2.631
				c0.006,1.874,0.258,3.616,0.728,5.221c0.561,1.915,1.362,3.266,2.41,4.037c0.545,0.401,1.852,0.621,3.91,0.691
				c3.438,0.117,5.847-2.563,7.327-8.104c0.77-2.869,1.293-6.927,1.539-12.171c0.032-0.691,0.292-1.355,0.786-1.966
				c0.662-0.819,1.598-1.2,2.764-1.133c0.953,0.055,1.649,0.417,2.09,1.056c0.328,0.478,0.484,0.996,0.45,1.551
				c-0.319,4.87-0.831,8.651-1.495,11.342C370.538,32.899,368.867,36.31,366.583,38.974z"/>
			<path stroke="#000000" stroke-miterlimit="10" d="M394.914,45.16c-0.689-0.1-1.287-0.447-1.791-1.041
				c-3.401-4.006-11.754-9.015-12.137-8.769c-0.576,0.371-0.316,5.586-0.354,5.979c-0.065,0.701-0.383,1.268-0.94,1.706
				c-0.561,0.438-1.225,0.623-1.992,0.556c-0.771-0.067-1.387-0.365-1.862-0.892c-0.475-0.527-0.688-1.139-0.633-1.841
				c0.072-0.923,0.19-2.306,0.361-4.145c0.17-1.839,0.291-3.221,0.361-4.145c0.482-5.962,0.727-8.943,1.208-14.905
				c0.063-0.8,0.395-1.511,0.992-2.114c0.775-0.779,1.813-1.07,3.066-0.873c3.392,0.533,5.131,0.845,5.213,0.864
				c1.897,0.445,3.563,1.028,4.854,1.802c5.62,3.367,8.047,7.094,7.466,10.979c-0.239,1.601-1.056,2.922-2.425,3.979
				c-1.369,1.058-5.766,2.391-5.766,2.391c-0.063,0.324,5.606,4.493,7.056,6.632c0.377,0.557,0.521,1.136,0.431,1.734
				c-0.105,0.684-0.469,1.23-1.08,1.643C396.329,45.115,395.655,45.268,394.914,45.16z M385.003,20.444
				c-0.106-0.022-0.911-0.159-2.411-0.389c-0.375,3.918-0.563,5.876-0.938,9.794c0.334,0.045,0.626,0.079,0.882,0.104
				c3.286,0.324,5.76,0.232,7.433-0.316c0.723-0.236,1.406-0.579,2.046-1.032c0.643-0.453,0.982-0.813,1.02-1.082
				c0.18-1.372-0.61-2.833-2.399-4.338C388.938,21.757,387.021,20.857,385.003,20.444z"/>
			<path stroke="#000000" stroke-miterlimit="10" d="M421.03,27.453c-0.651-0.144-4.67-1.954-5.259-1.643
				c-0.57,0.301-1.332,5.132-2.076,8.826c-0.665,3.261-0.998,4.89-1.663,8.151c1.723,0.309,3.472,0.659,5.248,1.049
				c0.771,0.17,1.357,0.554,1.756,1.15c0.396,0.597,0.516,1.234,0.361,1.908c-0.155,0.674-0.541,1.189-1.161,1.549
				c-0.619,0.36-1.316,0.455-2.095,0.284c-0.725-0.159-1.814-0.38-3.272-0.651c-1.457-0.271-2.546-0.473-3.272-0.616
				c-0.854-0.168-2.162-0.312-3.915-0.412c-1.753-0.101-3.06-0.215-3.917-0.36c-0.777-0.132-1.382-0.478-1.817-1.043
				c-0.438-0.565-0.604-1.19-0.494-1.874c0.109-0.683,0.473-1.226,1.099-1.625c0.624-0.398,1.354-0.528,2.184-0.388
				c0.938,0.16,3.414,0.655,3.76,0.379c0.376-0.299,0.725-4.187,1.466-8.246c0.604-3.305,1.312-6.435,2.135-9.385
				c-1.789-0.283-2.683-0.418-4.474-0.676c-0.822-0.139-1.474-0.491-1.952-1.058c-0.479-0.566-0.665-1.201-0.552-1.909
				c0.115-0.719,0.479-1.264,1.091-1.626c0.563-0.334,1.218-0.471,1.956-0.409c1.201,0.101,3.276,0.404,6.21,0.956
				c2.637,0.496,5.991,1.417,10,2.839c1.597,0.566,2.226,1.591,1.892,3.048c-0.177,0.771-0.635,1.304-1.355,1.61
				C422.309,27.534,421.681,27.596,421.03,27.453z"/>
			<path stroke="#000000" stroke-miterlimit="10" d="M425.094,51.104c-0.486-0.285-1.301-0.595-1.688-1.193
				c-0.39-0.598-0.504-1.233-0.341-1.905c0.291-1.201,0.785-2.988,1.492-5.358s1.211-4.154,1.505-5.354
				c0.324-1.332,0.781-3.337,1.37-6.017c0.591-2.68,1.044-4.687,1.368-6.019c0.16-0.66,0.685-1.228,1.574-1.702
				s1.753-0.605,2.58-0.395c0.454,0.116,1.518,0.777,3.132,2.004c1.889,1.436,3.004,2.292,3.365,2.51
				c3.663,2.208,6.521,5.008,8.535,8.215c2.398,3.823,2.972,7.437,1.854,10.801c-0.674,2.028-1.873,3.775-3.526,5.259
				c-1.681,1.505-3.618,2.547-5.811,3.111c-2.46,0.633-5.533,0.404-9.281-0.632c-0.906-0.251-1.926-0.66-3.042-1.226
				C426.829,52.517,425.73,51.475,425.094,51.104z M440.985,35.685c-1.077-1.095-3.511-3.045-7.404-5.74
				c-1.861,7.097-2.79,10.646-4.652,17.743c0.418,0.429,0.928,0.804,1.526,1.125s1.294,0.589,2.078,0.806
				c2.733,0.756,4.791,0.977,6.188,0.62c1.326-0.338,2.501-0.981,3.526-1.932c1.025-0.951,1.743-2.046,2.133-3.296
				C445.294,42.086,444.199,38.953,440.985,35.685z"/>
			<path stroke="#000000" stroke-miterlimit="10" d="M470.226,66.794c-0.938-0.443-1.43-1.921-1.548-4.403
				c-0.076-1.608,0.572-4.874,0.248-5.353c-0.189-0.283-2.538-0.75-4.685-1.443c-2.021-0.652-4.154-1.467-4.715-1.296
				c-0.754,0.229-2.787,2.761-5.108,4.655c-0.791,0.645-1.743,0.789-2.702,0.449c-0.677-0.239-1.209-0.671-1.602-1.297
				s-0.476-1.278-0.241-1.956c0.204-0.596,4.097-3.047,4.862-5.095c0.081-0.217-0.011-0.79,0.128-1.094
				c0.244-0.54,1.534-0.417,2.317-0.648c2.189-0.646,5.972-4.409,9.409-6.581c4.938-3.119,7.889-4.44,8.657-4.127
				c1.458,0.594,2.188,1.854,1.969,3.479c-0.174,1.274-0.619,3.343-1.078,5.999c-0.618,3.584-1.288,7.777-2,12.43
				c-0.054,0.353-0.06,1.24-0.041,2.65c0.018,1.165-0.09,1.992-0.305,2.478c-0.29,0.656-0.794,1.086-1.512,1.297
				S470.879,67.103,470.226,66.794z M470.546,46.336c-0.134-0.084-6.604,4.667-6.604,4.667c0.011,0.047,1.54,0.357,2.771,0.765
				c1.45,0.482,2.688,0.929,2.755,0.886C469.836,52.422,470.546,46.336,470.546,46.336z"/>
			<path stroke="#000000" stroke-miterlimit="10" d="M479.912,70.759c-0.438-0.38-1.188-0.844-1.46-1.509
				c-0.273-0.665-0.267-1.312,0.022-1.94c0.52-1.122,1.35-2.778,2.501-4.967c1.153-2.188,1.992-3.841,2.513-4.962
				c0.576-1.244,1.414-3.124,2.508-5.64c1.094-2.516,1.927-4.396,2.502-5.641c0.285-0.617,0.913-1.073,1.891-1.36
				c0.979-0.288,1.858-0.243,2.645,0.13c0.431,0.205,1.368,1.066,2.744,2.597c1.607,1.791,2.557,2.86,2.876,3.147
				c3.231,2.909,5.559,6.244,6.961,9.809c1.673,4.25,1.56,7.927-0.191,11.009c-1.056,1.858-2.582,3.33-4.515,4.452
				c-1.96,1.138-4.091,1.771-6.383,1.88c-2.573,0.123-5.601-0.728-9.14-2.501c-0.855-0.43-1.793-1.036-2.798-1.817
				C481.369,72.498,480.475,71.251,479.912,70.759z M498.664,58.8c-0.867-1.295-2.922-3.705-6.292-7.136
				c-3.198,6.604-4.799,9.906-7.998,16.51c0.335,0.505,0.771,0.974,1.31,1.411c0.537,0.436,1.181,0.841,1.922,1.212
				c2.582,1.294,4.589,1.929,6.052,1.862c1.387-0.063,2.681-0.459,3.884-1.187c1.202-0.727,2.123-1.66,2.748-2.81
				C501.749,65.971,501.249,62.664,498.664,58.8z"/>
		</g>
	</g>
</g>
<g id="Capa_4">
	<g>
		<g>
			<path stroke="#000000" stroke-miterlimit="10" d="M546.754,113.848c-0.237-0.471-0.746-1.132-0.708-1.787
				c0.037-0.654,0.332-1.193,0.89-1.615c0.997-0.752,2.535-1.839,4.616-3.258c2.08-1.419,3.619-2.506,4.614-3.26
				c1.105-0.838,2.743-2.114,4.904-3.838c2.16-1.723,3.787-3.009,4.887-3.851c0.546-0.417,1.358-0.569,2.433-0.446
				c1.073,0.124,1.915,0.494,2.517,1.106c0.329,0.337,0.859,1.421,1.514,3.233c0.764,2.12,1.197,3.378,1.375,3.74
				c1.805,3.664,2.499,7.328,2.173,10.814c-0.389,4.158-2.247,7.135-5.364,9.018c-1.88,1.135-4.017,1.779-6.367,1.991
				c-2.389,0.215-4.688-0.044-6.895-0.784c-2.479-0.831-4.916-2.619-7.442-5.358c-0.612-0.664-1.219-1.503-1.813-2.512
				C547.36,115.819,547.047,114.429,546.754,113.848z M570.098,110.741c-0.233-1.404-1.098-4.184-2.828-8.338
				c-6.018,4.376-9.03,6.557-15.08,10.901c0.09,0.543,0.289,1.093,0.603,1.651c0.313,0.559,0.734,1.123,1.269,1.7
				c1.855,2.009,3.456,3.265,4.869,3.743c1.34,0.452,2.747,0.603,4.226,0.444c1.476-0.159,2.786-0.59,3.917-1.31
				C569.715,117.851,570.802,114.934,570.098,110.741z"/>
			<path stroke="#000000" stroke-miterlimit="10" d="M595.559,135.995c-0.144-0.223-0.259-0.475-0.347-0.752
				c-0.648-2.047-1.58-3.928-2.741-5.613c-0.567-0.826-1.258-1.675-2.06-2.542c-0.804-0.868-2.22-2.599-2.764-2.654
				c-0.721-0.074-6.62,3.109-6.706,3.537c-0.031,0.157,2.209,2.492,5.031,5.878c1.61,1.931,2.573,3.188,2.935,3.739
				c0.415,0.639,0.554,1.293,0.409,1.958c-0.146,0.663-0.58,1.167-1.301,1.511c-1.381,0.661-2.646,0.349-3.646-0.901
				c-0.624-0.778-1.557-2.055-2.854-3.604c-1.162-1.392-4.089-6.04-5.381-6.303c-0.626-0.127-2.637,1.316-3.506,1.799
				c-2.186,1.214-3.346,2.019-3.479,2.411c-0.064,0.189,0.322,0.854,1.146,2c0.443,0.618,1.125,1.539,2.027,2.776
				c0.903,1.237,1.556,2.174,1.976,2.802c0.134,0.202,0.37,0.482,0.7,0.843c0.33,0.362,0.557,0.641,0.685,0.834
				c0.386,0.588,0.516,1.191,0.402,1.79c-0.126,0.679-0.576,1.209-1.354,1.579c-1.304,0.618-2.451,0.396-3.461-0.644
				c-0.862-0.888-2.311-2.897-4.477-5.976c-2.243-3.188-3.308-5.498-3.063-7.008c0.269-1.666,2.156-3.541,5.701-5.616
				c1.472-0.861,3.756-2.058,6.854-3.584c3.102-1.525,5.382-2.713,6.84-3.57c0.384-0.226,0.911-0.61,1.579-1.16
				c0.666-0.549,1.189-0.936,1.573-1.163c1.662-0.982,3.091-0.715,4.256,0.822c0.367,0.482,0.443,1.269,0.592,1.572
				c0.445,0.911,2.407,2.181,3.403,3.256c0.996,1.076,1.854,2.139,2.575,3.185c1.954,2.833,3.111,5.3,3.538,7.34
				c0.259,1.243-0.15,2.118-1.222,2.626c-0.604,0.288-1.271,0.333-1.982,0.158C596.635,137.121,596.001,136.685,595.559,135.995z"/>
			<path stroke="#000000" stroke-miterlimit="10" d="M590.803,179.365c-1.149-1.069-2.515-2.86-4.158-5.307
				c-1.504-2.24-2.641-4.102-3.357-5.616c-1.215-2.56,2.054-5.307,2.054-5.307s1.771-0.546,5.939-1.867
				c5.417-1.716,11.362-3.79,17.82-6.259c0.692-0.265,1.396-0.262,2.113,0.021c0.716,0.281,1.251,0.781,1.595,1.493
				c0.347,0.712,0.385,1.397,0.117,2.049c-0.265,0.651-0.75,1.101-1.449,1.352c-6.53,2.344-12.734,4.497-18.289,5.99
				c-0.997,0.268-4.521,0.984-4.655,1.294c-0.267,0.604,3.432,5.529,6.477,9.174c0.189,0.227,0.331,0.456,0.423,0.687
				c0.275,0.692,0.206,1.341-0.204,1.939c-0.365,0.535-0.875,0.896-1.518,1.083C592.626,180.405,591.657,180.158,590.803,179.365z"
				/>
			<path stroke="#000000" stroke-miterlimit="10" d="M596.534,201.542c-0.184-0.878,0.813-1.981,2.92-3.365
				c1.362-0.895,4.679-2.198,4.844-2.647c0.09-0.245-0.903-2.164-1.625-4.027c-0.679-1.753-1.342-3.676-1.794-3.973
				c-0.713-0.469-4.095-0.445-7.214-1.036c-1.054-0.199-1.769-0.78-2.069-1.62c-0.213-0.594-0.172-1.194,0.126-1.802
				c0.298-0.606,0.813-1.017,1.544-1.224c0.646-0.182,4.936,1.276,7.45,0.597c0.25-0.067,0.678-0.434,1.026-0.503
				c0.621-0.123,1.365,0.846,2.011,1.262c2.041,1.314,7.549,1.778,11.578,3.024c5.787,1.791,8.771,3.177,8.977,3.894
				c0.39,1.357-0.258,2.556-1.813,3.272c-1.236,0.569-3.303,1.354-5.913,2.445c-3.521,1.471-7.603,3.215-12.131,5.151
				c-0.342,0.146-1.128,0.607-2.357,1.352c-1.016,0.616-1.809,0.968-2.367,1.07c-0.753,0.138-1.44,0.012-2.064-0.375
				C597.032,202.65,596.661,202.152,596.534,201.542z M614.654,190.965c-0.011-0.116-8.161-2.13-8.161-2.13
				c-0.025,0.035,0.641,1.27,1.046,2.349c0.478,1.272,0.843,2.365,0.927,2.399C608.957,193.779,614.654,190.965,614.654,190.965z"/>
			<path stroke="#000000" stroke-miterlimit="10" d="M627.314,237.32c-0.013-0.287,0.036-0.609,0.142-0.962
				c0.481-1.635,0.658-3.626,0.484-5.953c-0.059-0.763-0.183-1.64-0.373-2.624c-0.193-0.985-0.471-3.039-0.793-3.259
				c-0.755-0.513-6.442,0.42-6.545,0.582c-0.206,0.324,1.063,3.322,1.159,4.542c0.185,2.268,0.188,4.254,0.044,5.948
				c-0.136,1.585-1.013,2.405-2.604,2.465c-0.771,0.029-1.424-0.195-1.962-0.667c-0.537-0.47-0.819-1.055-0.854-1.76
				c-0.029-0.623-0.025-1.556-0.002-2.805c0.025-1.249,0.01-2.185-0.042-2.804c-0.068-0.872-0.502-2.358-1.332-4.432
				c-4.974,0.432-7.462,0.644-12.438,1.06c-0.768,0.064-1.436-0.14-2.005-0.604c-0.57-0.465-0.893-1.025-0.969-1.681
				c-0.077-0.646,0.109-1.195,0.565-1.646c0.458-0.454,1.072-0.724,1.854-0.805c9.069-0.94,13.604-1.423,22.67-2.414
				c0.515-0.056,1.292-0.131,2.336-0.227c1.045-0.095,1.825-0.173,2.34-0.23c0.778-0.086,1.458,0.092,2.035,0.535
				c0.578,0.442,0.916,1.049,1.006,1.812c0.057,0.482-0.136,1.025-0.149,1.303c-0.048,1.011,0.758,2.785,0.997,4.011
				c0.238,1.225,0.396,2.339,0.468,3.333c0.109,1.456-0.078,3.31-0.601,5.544c-0.652,2.803-1.541,4.204-2.577,4.237
				c-0.757,0.024-1.413-0.209-1.973-0.699C627.636,238.631,627.342,238.033,627.314,237.32z"/>
			<path stroke="#000000" stroke-miterlimit="10" d="M601.055,262.646c0.129-0.889,1.461-1.697,3.951-2.49
				c1.612-0.514,5.194-0.858,5.541-1.309c0.172-0.223-0.117-2.306-0.164-4.274c-0.044-1.851-0.031-3.881-0.341-4.259
				c-0.498-0.607-3.76-1.466-6.536-2.823c-0.933-0.456-1.422-1.191-1.42-2.072c0.002-0.622,0.251-1.185,0.746-1.688
				c0.495-0.506,1.126-0.766,1.896-0.778c0.68-0.01,4.326,2.437,6.906,2.461c0.272,0.002,0.799-0.244,1.157-0.222
				c0.636,0.04,1.031,1.177,1.484,1.716c1.448,1.725,6.598,3.618,10.018,5.834c4.91,3.181,7.282,5.269,7.229,6.006
				c-0.098,1.4-1.118,2.385-2.86,2.677c-1.375,0.231-3.621,0.458-6.491,0.842c-3.874,0.518-8.369,1.154-13.365,1.862
				c-0.378,0.054-1.285,0.296-2.717,0.7c-1.184,0.334-2.064,0.471-2.635,0.427c-0.77-0.059-1.38-0.354-1.842-0.886
				C601.15,263.838,600.965,263.265,601.055,262.646z M622.014,257.1c0.022-0.113-7.063-4.112-7.063-4.112
				c-0.04,0.029,0.178,1.38,0.19,2.516c0.019,1.339-0.002,2.488,0.059,2.536C615.58,258.349,622.014,257.1,622.014,257.1z"/>
			<path stroke="#000000" stroke-miterlimit="10" d="M615.416,277.747c0.008-0.055-5.223-2.114-9.279-3.345
				c-1.39-0.422-3-0.71-4.344-1.131c-1.729-0.543-2.599-1.621-2.418-2.858c0.113-0.775,0.51-1.358,1.19-1.751
				c0.578-0.335,1.233-0.473,1.963-0.407c2.141,0.192,4.7,0.817,7.666,1.91c4.438,1.637,6.897,2.578,7.384,2.718
				c1.957,0.565,3.978,1.104,5.932,1.691c2.696,0.812,4.479,1.649,5.3,2.412c0.82,0.763,1.146,1.657,0.967,2.674
				c-0.204,1.154-0.972,1.936-2.281,2.32c-1.234,0.362-3.688,0.604-7.328,0.69c-3.53,0.083-11.542,0.805-11.542,0.805
				c-0.033,0.174,7.586,3.833,11.942,5.774c1.707,0.7,2.561,1.051,4.263,1.763c1.708,0.979,2.388,2.189,2.021,3.615
				c-0.351,1.374-1.717,2.193-4.043,2.459c-0.94,0.107-2.646,0.1-5.104-0.049c-5.723-0.348-10.698-0.417-14.921-0.217
				c-4.291,0.205-6.61,0.222-6.958,0.146c-0.762-0.163-1.331-0.563-1.683-1.19c-0.32-0.578-0.391-1.186-0.215-1.793
				c0.351-1.208,1.605-1.903,3.791-2.112c1.985-0.019,2.979-0.03,4.967-0.065c2.485-0.117,10.563-0.009,10.563-0.009
				c0.012-0.047-4.126-2.211-7.581-4.039c-1.341-0.657-2.012-0.983-3.357-1.63c-1.322-0.655-2.393-1.279-3.205-1.875
				c-1.079-0.791-1.504-1.71-1.277-2.774c0.222-1.054,1.105-1.756,2.677-2.123c1.54-0.18,2.309-0.274,3.849-0.467
				C607.883,278.433,615.416,277.747,615.416,277.747z"/>
			<path stroke="#000000" stroke-miterlimit="10" d="M611.458,319.255c0.234-0.577,2.563-4.185,2.394-4.612
				c-0.211-0.535-5.351-1.68-9.226-2.703c-3.419-0.91-5.129-1.369-8.546-2.285c-0.526,1.509-1.104,3.037-1.729,4.58
				c-0.271,0.673-0.758,1.154-1.439,1.442c-0.688,0.29-1.379,0.33-2.082,0.12c-0.702-0.211-1.209-0.611-1.521-1.202
				c-0.311-0.589-0.327-1.218-0.056-1.89c0.255-0.627,0.616-1.571,1.072-2.836c0.456-1.268,0.792-2.217,1.022-2.846
				c0.274-0.742,0.57-1.891,0.864-3.434c0.293-1.545,0.547-2.688,0.79-3.436c0.222-0.678,0.658-1.18,1.307-1.516
				c0.649-0.336,1.331-0.43,2.054-0.271c0.722,0.157,1.269,0.53,1.633,1.12c0.364,0.592,0.426,1.255,0.188,1.979
				c-0.268,0.821-0.988,3.015-0.799,3.31c0.258,0.396,4.407,1.043,8.68,2.078c3.479,0.842,6.761,1.754,9.836,2.761
				c0.505-1.597,0.75-2.396,1.22-3.994c0.235-0.731,0.68-1.289,1.338-1.679c0.657-0.387,1.36-0.502,2.108-0.344
				c0.762,0.162,1.31,0.533,1.635,1.117c0.3,0.539,0.375,1.146,0.229,1.811c-0.236,1.086-0.788,2.943-1.715,5.563
				c-0.833,2.354-2.214,5.331-4.239,8.841c-0.807,1.398-1.982,1.867-3.506,1.422c-0.806-0.234-1.32-0.705-1.559-1.39
				C611.211,320.404,611.224,319.832,611.458,319.255z"/>
			<path stroke="#000000" stroke-miterlimit="10" d="M580.332,332.961c0.057-1.498,0.556-3.659,1.384-6.477
				c0.758-2.578,1.462-4.647,2.183-6.205c1.22-2.633,5.812-2.713,5.812-2.713s1.721,0.654,5.799,2.17
				c5.299,1.969,11.271,3.99,17.933,6.025c0.716,0.217,1.218,0.641,1.504,1.274c0.285,0.637,0.266,1.323-0.067,2.062
				c-0.333,0.729-0.863,1.262-1.587,1.586c-0.722,0.323-1.438,0.371-2.146,0.139c-6.612-2.168-12.813-4.273-18.05-6.498
				c-0.932-0.396-3.905-2.031-4.409-1.825c-0.814,0.334-2.057,6.177-2.873,10.742c-0.05,0.282-0.135,0.536-0.26,0.767
				c-0.373,0.688-0.96,1.133-1.749,1.336c-0.705,0.184-1.364,0.154-1.979-0.091C580.784,334.84,580.29,334.07,580.332,332.961z"/>
			<path stroke="#000000" stroke-miterlimit="10" d="M590.361,358.6c0.364-0.541,3.53-3.813,3.447-4.25
				c-0.101-0.533-4.886-2.515-8.468-4.143c-3.159-1.443-4.735-2.168-7.893-3.618c-0.873,1.429-1.804,2.871-2.787,4.321
				c-0.428,0.631-1.02,1.041-1.762,1.227c-0.745,0.184-1.441,0.115-2.087-0.203c-0.644-0.32-1.049-0.804-1.216-1.441
				c-0.167-0.641-0.036-1.273,0.395-1.904c0.396-0.588,0.979-1.479,1.728-2.675c0.749-1.199,1.306-2.103,1.683-2.696
				c0.442-0.701,1.004-1.8,1.651-3.299c0.65-1.501,1.171-2.605,1.582-3.314c0.375-0.646,0.917-1.084,1.634-1.316
				c0.719-0.234,1.412-0.219,2.086,0.053c0.675,0.271,1.128,0.729,1.35,1.375s0.133,1.323-0.27,2.014
				c-0.455,0.78-1.684,2.881-1.561,3.188c0.163,0.402,4.104,1.73,8.075,3.434c3.232,1.385,6.252,2.813,9.05,4.297
				c0.869-1.52,1.298-2.278,2.131-3.808c0.402-0.692,0.969-1.187,1.707-1.47c0.737-0.285,1.455-0.291,2.156-0.016
				c0.712,0.28,1.164,0.738,1.35,1.373c0.171,0.586,0.104,1.203-0.19,1.847c-0.485,1.048-1.456,2.823-2.98,5.303
				c-1.37,2.229-3.427,4.985-6.255,8.19c-1.127,1.277-2.405,1.567-3.801,0.886c-0.739-0.361-1.137-0.912-1.208-1.636
				C589.847,359.714,589.994,359.141,590.361,358.6z"/>
			<path stroke="#000000" stroke-miterlimit="10" d="M552.54,369.902c0.713-0.744,2.393-0.868,5.039-0.457
				c1.717,0.268,4.888,1.59,5.588,1.332c0.356-0.131,1.445-2.125,2.717-3.913c1.194-1.681,2.571-3.494,2.534-3.976
				c-0.052-0.668-2.233-3.039-3.686-5.494c-0.489-0.826-0.418-1.709,0.161-2.496c0.409-0.558,0.986-0.943,1.736-1.172
				s1.458-0.175,2.119,0.164c0.582,0.299,2.352,4.224,4.25,5.33c0.227,0.133,0.836,0.146,1.124,0.327
				c0.513,0.322,0.084,1.513,0.135,2.207c0.146,1.972,3.224,6.226,4.657,9.761c2.063,5.073,2.681,8.021,2.146,8.657
				c-1.02,1.214-2.536,1.642-4.224,1.11c-1.307-0.41-3.391-1.229-6.085-2.18c-3.643-1.287-7.901-2.748-12.624-4.364
				c-0.356-0.122-1.295-0.313-2.787-0.597c-1.229-0.232-2.076-0.511-2.531-0.808c-0.611-0.399-0.932-0.94-0.965-1.629
				C551.813,371.021,552.045,370.42,552.54,369.902z M574.079,374.393c0.103-0.115-3.264-6.885-3.264-6.885
				c-0.063,0-0.766,1.315-1.51,2.342c-0.879,1.213-1.661,2.252-1.646,2.301C567.784,372.512,574.079,374.393,574.079,374.393z"/>
		</g>
	</g>
</g>
<g>
	<g>
		<path stroke="#000000" stroke-miterlimit="10" d="M169.681,524.764c-2.217-0.099-4.388-2.672-6.555-7.618
			c-1.401-3.197-2.546-10.507-3.613-11.081c-0.512-0.274-5.513,0.537-10.233,0.799c-4.442,0.247-9.339,0.353-10.24,0.959
			c-1.574,1.059-3.569,7.69-7.033,13.377c-1.162,1.905-3.014,2.898-5.208,2.878c-1.549-0.015-2.931-0.537-4.148-1.564
			c-1.216-1.024-1.81-2.322-1.777-3.894c0.029-1.381,6.244-8.473,6.455-13.995c0.022-0.574-0.531-1.63-0.456-2.359
			c0.134-1.295,2.888-2.135,4.155-3.005c4.409-3.024,8.725-13.488,13.771-20.589c7.246-10.195,11.691-15.285,13.323-15.271
			c3.095,0.028,5.322,1.954,6.093,5.458c0.614,2.786,1.268,7.29,2.387,13.063c1.729,8.92,3.696,17.95,5.732,26.822
			c0.175,0.758,0.87,2.562,2.042,5.384c0.968,2.334,1.435,4.09,1.409,5.253c-0.033,1.57-0.674,2.881-1.918,3.922
			C172.623,524.347,171.225,524.832,169.681,524.764z M154.801,482.948c-0.226-0.026-9.383,14.739-9.383,14.739
			c0.074,0.069,3.248-0.458,5.923-0.595c3.154-0.159,5.837-0.265,5.961-0.392C158.146,495.832,154.801,482.948,154.801,482.948z"/>
		<path stroke="#000000" stroke-miterlimit="10" d="M205.609,526.363c-7.147-0.066-12.744-1.67-16.79-4.748
			c-3.386-2.58-5.077-5.535-5.008-8.865c0.035-1.706,0.598-3.112,1.691-4.226c1.094-1.114,2.582-1.663,4.469-1.646
			c2.533,0.023,4.358,1.296,5.494,3.787c1.521,3.343,5.131,5.048,10.786,5.102c4.839,0.045,9.55-0.942,14.12-2.919
			c4.725-2.042,7.141-4.303,7.193-6.794c0.071-3.412-1.357-5.67-4.248-6.782c-2.063-0.797-6.24-1.305-12.51-1.498
			c-4.865-0.153-9.219-1.072-13.032-2.761c-5.156-2.286-7.644-5.552-7.48-9.741c0.206-5.271,3.222-10.089,9.082-14.437
			c5.86-4.346,12.267-6.486,19.218-6.419c2.758,0.023,6.153,0.665,10.177,1.921c5.005,1.563,7.488,3.337,7.447,5.313
			c-0.03,1.408-0.57,2.65-1.598,3.723c-1.153,1.203-2.609,1.804-4.382,1.787c-1.324-0.014-3.299-0.306-5.917-0.868
			c-2.619-0.567-4.612-0.859-5.957-0.867c-3.613-0.021-7.101,0.813-10.396,2.419c-3.391,1.65-5.136,3.46-5.177,5.436
			c-0.021,1.029,0.472,1.882,1.486,2.554c1.009,0.672,2.633,1.245,4.593,1.442c3.399,0.344,7.231,0.415,10.75,0.671
			c6.162,0.449,11.159,2.258,14.71,5.216c3.928,3.272,5.837,7.797,5.717,13.537c-0.146,6.982-4.397,12.252-12.743,15.767
			C220.955,525.143,213.713,526.439,205.609,526.363z"/>
		<path stroke="#000000" stroke-miterlimit="10" d="M295.624,525.946c-2.223-0.1-4.388-2.668-6.557-7.615
			c-1.4-3.197-2.543-10.506-3.61-11.08c-0.511-0.275-5.512,0.534-10.232,0.797c-4.442,0.248-9.338,0.354-10.24,0.959
			c-1.576,1.061-3.572,7.691-7.034,13.382c-1.161,1.906-3.015,2.896-5.209,2.876c-1.547-0.015-2.93-0.541-4.147-1.567
			c-1.215-1.023-1.811-2.323-1.777-3.895c0.029-1.381,6.245-8.471,6.455-13.993c0.023-0.574-0.534-1.628-0.458-2.36
			c0.133-1.293,2.891-2.138,4.159-3.007c4.41-3.029,8.724-13.489,13.77-20.587c7.246-10.195,11.69-15.282,13.322-15.267
			c3.095,0.028,5.321,1.951,6.092,5.457c0.613,2.786,1.271,7.288,2.39,13.061c1.729,8.921,3.695,17.951,5.73,26.822
			c0.175,0.758,0.87,2.556,2.042,5.38c0.968,2.333,1.435,4.092,1.412,5.255c-0.034,1.571-0.673,2.877-1.919,3.921
			C298.564,525.531,297.168,526.016,295.624,525.946z M280.745,484.134c-0.226-0.028-9.384,14.737-9.384,14.737
			c0.074,0.07,3.248-0.457,5.923-0.595c3.154-0.159,5.837-0.264,5.959-0.389C284.086,497.024,280.745,484.134,280.745,484.134z"/>
		<path stroke="#000000" stroke-miterlimit="10" d="M325.406,502.343c-0.479-0.004-3.254-0.499-3.541-0.319
			c-1.004,0.633-0.461,10.018-0.642,18.682c-0.03,1.437-0.578,2.663-1.642,3.682c-1.063,1.019-2.395,1.52-3.998,1.506
			c-1.603-0.016-2.925-0.543-3.958-1.58c-1.033-1.038-1.533-2.274-1.504-3.711c0.094-4.533,0.139-6.798,0.235-11.332
			c0.087-4.194,0.515-10.419,1.231-18.63c0.726-8.347,1.13-14.604,1.238-18.716c0.184-7.03,3.142-9.806,6.371-10.054
			c0.8-0.061,2.291-0.406,3.98-0.512c1.689-0.104,3.745-0.147,6.168-0.125c5.513,0.054,10.67,1.819,15.424,5.304
			c5.295,3.883,7.887,8.607,7.771,14.131c-0.146,6.932-3.115,12.423-8.912,16.444C338.504,500.666,332.396,502.397,325.406,502.343z
			 M328.154,471.7c-0.899-0.009-1.697-0.007-2.386,0.001c-0.688,0.007-1.654-0.002-1.753,0.084c-0.385,0.332-0.072,3.19-0.163,5.726
			c-0.107,2.996-2.57,12.548-1.095,14.044c0.299,0.304,2.387,0.347,2.864,0.352c4.382,0.033,8.056-0.928,10.996-2.903
			c3.139-2.11,4.746-4.922,4.819-8.442c0.049-2.301-1.368-4.36-4.219-6.176C334.47,472.635,331.445,471.732,328.154,471.7z"/>
		<path stroke="#000000" stroke-miterlimit="10" d="M402.837,473.665c-0.562-0.005-1.153-0.096-1.77-0.262
			c-4.534-1.236-8.956-1.87-13.259-1.911c-2.109-0.021-4.383,0.12-6.81,0.421c-2.426,0.302-7.095,0.726-7.75,1.392
			c-1.165,1.177-1.892,15.168-0.716,16.038c0.284,0.21,7.097-0.539,16.538-1.348c5.382-0.462,8.797-0.688,10.231-0.677
			c1.659,0.018,3.07,0.539,4.229,1.563s1.725,2.379,1.688,4.06c-0.066,3.221-1.992,5.131-5.475,5.433
			c-2.177,0.19-5.7,0.33-10.105,0.714c-3.951,0.345-16.377,0.055-18.1,1.415c-1.094,0.861-0.425,6.209-0.467,8.321
			c-0.11,5.306,0.155,8.33,0.783,9.066c0.303,0.353,2.07,0.549,5.305,0.578c1.744,0.015,4.379,0.001,7.899-0.049
			c3.52-0.047,6.153-0.066,7.896-0.049c0.563,0.006,1.394-0.063,2.495-0.218c1.1-0.153,1.917-0.223,2.453-0.219
			c1.628,0.014,3.019,0.483,4.154,1.381c1.286,1.014,1.931,2.428,1.894,4.241c-0.063,3.033-1.751,4.828-5.053,5.396
			c-2.821,0.486-8.673,0.688-17.534,0.606c-9.175-0.088-15.128-1.336-17.865-3.746c-3.014-2.655-4.429-8.353-4.248-17.097
			c0.075-3.63,0.463-9.077,1.163-16.341c0.7-7.265,1.088-12.694,1.164-16.296c0.021-0.945-0.091-2.351-0.333-4.209
			c-0.242-1.855-0.356-3.26-0.337-4.207c0.086-4.116,2.104-6.155,6.04-6.117c1.237,0.01,2.73,0.938,3.394,1.047
			c1.729,0.291,6.4-1.315,9.35-1.68c2.948-0.364,5.731-0.535,8.35-0.512c7.091,0.069,12.75,0.918,16.961,2.521
			c2.562,0.975,3.827,2.7,3.775,5.192c-0.029,1.408-0.579,2.646-1.598,3.72C406.023,473.055,404.578,473.683,402.837,473.665z"/>
		<path stroke="#000000" stroke-miterlimit="10" d="M434.365,528.51c-7.146-0.066-12.743-1.668-16.79-4.749
			c-3.388-2.577-5.075-5.531-5.007-8.861c0.035-1.705,0.597-3.112,1.689-4.227c1.091-1.113,2.581-1.662,4.465-1.644
			c2.53,0.022,4.36,1.296,5.498,3.788c1.521,3.342,5.131,5.048,10.784,5.1c4.84,0.043,9.55-0.938,14.119-2.914
			c4.727-2.043,7.14-4.307,7.193-6.799c0.068-3.41-1.36-5.67-4.25-6.785c-2.064-0.795-6.238-1.3-12.509-1.493
			c-4.864-0.152-9.217-1.079-13.03-2.769c-5.158-2.285-7.646-5.545-7.484-9.734c0.205-5.268,3.227-10.091,9.089-14.438
			c5.86-4.346,12.262-6.487,19.215-6.42c2.758,0.025,6.155,0.668,10.178,1.926c5.003,1.561,7.485,3.334,7.443,5.312
			c-0.03,1.408-0.567,2.646-1.594,3.719c-1.152,1.201-2.613,1.803-4.386,1.787c-1.324-0.014-3.295-0.302-5.915-0.87
			c-2.619-0.565-4.61-0.857-5.957-0.865c-3.616-0.02-7.099,0.815-10.396,2.42c-3.388,1.651-5.138,3.46-5.18,5.436
			c-0.021,1.029,0.476,1.879,1.49,2.551c1.012,0.672,2.629,1.247,4.589,1.445c3.401,0.345,7.235,0.413,10.753,0.67
			c6.162,0.447,11.153,2.26,14.709,5.217c3.93,3.271,5.836,7.799,5.717,13.539c-0.146,6.984-4.395,12.246-12.741,15.76
			C449.707,527.289,442.468,528.587,434.365,528.51z"/>
		<path stroke="#000000" stroke-miterlimit="10" d="M489.539,503.886c-0.478-0.003-3.251-0.497-3.537-0.317
			c-1.001,0.631-0.463,10.017-0.642,18.682c-0.03,1.435-0.577,2.662-1.638,3.683c-1.062,1.018-2.397,1.517-4,1.502
			s-2.926-0.543-3.959-1.58c-1.035-1.039-1.537-2.274-1.507-3.711c0.094-4.533,0.143-6.8,0.236-11.333
			c0.088-4.193,0.518-10.417,1.231-18.629c0.727-8.346,1.128-14.604,1.235-18.717c0.185-7.03,3.151-9.802,6.375-10.052
			c0.798-0.063,2.291-0.407,3.98-0.514c1.689-0.104,3.747-0.146,6.169-0.121c5.512,0.051,10.672,1.819,15.423,5.303
			c5.294,3.88,7.887,8.604,7.77,14.127c-0.145,6.933-3.117,12.43-8.917,16.451C502.639,502.21,496.538,503.958,489.539,503.886z
			 M492.291,473.244c-0.901-0.01-1.697-0.007-2.385-0.002c-0.689,0.008-1.655-0.003-1.756,0.082
			c-0.385,0.333-0.073,3.191-0.163,5.729c-0.108,2.995-2.571,12.543-1.098,14.045c0.301,0.305,2.391,0.346,2.869,0.349
			c4.388,0.045,8.056-0.924,10.995-2.9c3.136-2.107,4.747-4.922,4.821-8.443c0.048-2.299-1.372-4.358-4.222-6.174
			C498.606,474.179,495.583,473.273,492.291,473.244z"/>
		<path stroke="#000000" stroke-miterlimit="10" d="M567.936,520.263c-2.104,2.66-4.634,4.882-7.569,6.633
			c-3.573,2.134-7.26,3.182-11.002,3.146c-7.173-0.067-12.591-1.422-15.916-4.062c-9.207-7.31-10.792-19.073-10.467-28.794
			c0.045-1.29,0.142-3.241,0.336-5.818c0.194-2.576,0.305-4.521,0.331-5.822c0.021-1.037,0.081-2.588,0.181-4.648
			c0.099-2.061,0.161-3.61,0.183-4.646c0.044-2.127,0.492-4.137,1.352-6.013c1.14-2.487,2.709-3.728,4.678-3.71
			c1.547,0.015,2.9,0.521,4.063,1.469c1.25,1.02,1.897,2.326,1.865,3.917c-0.031,1.51-0.102,3.796-0.207,6.855
			c-0.106,3.059-0.176,5.358-0.207,6.896c-0.025,1.271-0.137,3.193-0.332,5.762c-0.193,2.569-0.304,4.49-0.33,5.762
			c-0.086,4.106,0.354,7.935,1.28,11.461c1.105,4.208,2.774,7.179,5.011,8.871c1.162,0.881,3.976,1.374,8.416,1.475
			c7.419,0.171,12.688-5.937,15.405-18.135c1.965-8.816,2.303-17.868,2.583-26.789c0.048-1.503,0.524-2.983,1.486-4.371
			c1.285-1.854,3.127-2.771,5.463-2.75c1.915,0.019,3.33,0.72,4.264,2.068c0.696,1.004,1.064,2.135,1.027,3.344
			c-0.249,8.318-0.551,16.739-2.089,25.001C576.029,506.548,572.709,514.227,567.936,520.263z"/>
	</g>
</g>
<g>
	<g>
		<path stroke="#000000" stroke-width="2" stroke-miterlimit="10" d="M297.568,578.666c-1.584,0-2.376,0-3.96,0
			c-1.576-0.009-2.365-0.013-3.941-0.021c-0.929,0-1.586-0.063-1.95-0.2c-0.67-0.254-1.015-0.83-1.015-1.69
			c0-1.499,1.041-2.249,3.124-2.249c0.382,0.009,0.574,0.015,0.957,0.023c0.326,0.018,0.489,0.023,0.815,0.042
			c0-0.712-0.057-1.765-0.169-3.159c-0.113-1.396-0.167-2.44-0.167-3.139c0-1.886,0.157-4.753,0.457-8.593
			c0.296-3.779,0.417-8.613,0.417-8.613c-0.196-0.09-2.912,2.315-3.402,2.315c-0.531,0-0.993-0.224-1.384-0.669
			c-0.392-0.446-0.587-0.957-0.587-1.536c0-0.698,0.574-1.596,1.71-2.537c0.685-0.565,1.843-1.472,3.046-2.717
			c1.17-1.213,2.282-1.98,3.343-1.98c0.889,0,1.333,0.571,1.333,1.715c0,0.341-0.04,0.852-0.12,1.525
			c-0.08,0.675-0.119,1.183-0.119,1.522c0,0.489,0.022,1.234,0.069,2.228c0.046,0.994,0.069,1.736,0.069,2.227
			c0,1.69-0.159,4.215-0.478,7.569c-0.319,3.354-0.477,5.866-0.477,7.544c0,0.859,0.052,1.907,0.158,3.139s0.167,2.241,0.18,3.028
			c0.836-0.019,1.253-0.027,2.089-0.045c0.557,0,1.018,0.202,1.383,0.611c0.365,0.408,0.547,0.916,0.547,1.524
			c0,0.622-0.181,1.135-0.546,1.535C298.587,578.467,298.125,578.666,297.568,578.666z"/>
		<path stroke="#000000" stroke-width="2" stroke-miterlimit="10" d="M317.509,575.951c-0.967,0.802-2.533,1.764-4.657,2.895
			c-2.37,1.264-4.025,1.911-4.954,1.911c-0.545,0-0.992-0.22-1.345-0.664c-0.352-0.443-0.528-0.967-0.528-1.56
			c0-0.876,0.452-1.536,1.354-1.98c1.33-0.508,1.993-0.762,3.323-1.27c2.057-0.936,3.683-2.012,4.877-3.229
			c1.194-1.217,2.282-2.944,3.264-5.186c0.342-0.767,0.514-1.148,0.855-1.914c-0.744,0.476-1.699,0.912-2.865,1.313
			c-1.167,0.4-2.117,0.603-2.846,0.603c-2.507,0-4.679-0.778-6.507-2.337c-2.229-1.898-3.344-4.602-3.344-8.104
			c0-4.14,1.141-7.255,3.421-9.327c1.944-1.766,4.512-2.647,7.683-2.647c2.44,0,4.635,1.112,6.566,3.339
			c2.043,2.354,3.074,5.209,3.086,8.547c0.016,3.77-0.614,7.43-1.871,10.975C321.665,571.139,319.83,574.026,317.509,575.951z
			 M314.683,548.261c-2.229,0-3.904,0.646-5.025,1.938s-1.695,3.241-1.701,5.831c-0.005,2.177,0.685,3.879,2.051,5.076
			c1.204,1.055,2.727,1.58,4.557,1.58c1.061,0,2.17-0.354,3.323-1.066c0.531-0.327,2.319-1.218,2.865-2.203
			c0.401-0.725,0.262-2.321,0.259-3.075c-0.007-1.848-0.714-3.664-2.101-5.431S316.116,548.261,314.683,548.261z"/>
		<path stroke="#000000" stroke-width="2" stroke-miterlimit="10" d="M349.749,549.574c-0.725,0.942-1.088,1.417-1.813,2.359
			c-1.725,2.256-3.312,4.985-4.757,8.19c-1.447,3.552-2.173,5.329-3.622,8.881c-0.252,0.653-0.807,2.375-1.672,5.144
			c-0.686,2.194-1.345,3.84-1.931,4.919c-0.374,0.688-0.901,1.046-1.591,1.046c-0.531,0-0.999-0.208-1.403-0.623
			s-0.607-0.914-0.607-1.493c0-0.563,0.425-2.009,1.274-4.339c1.791-4.906,2.686-7.359,4.477-12.267
			c1.978-4.852,4.007-8.592,6.089-11.219c0.15-0.187,0.229-0.281,0.38-0.468c-3.995-0.09-5.993-0.132-9.989-0.222
			c-1.791-0.054-2.688-0.08-4.479-0.134c-1.286-0.133-1.931-0.847-1.931-2.138c0-0.622,0.188-1.135,0.559-1.535s0.837-0.6,1.395-0.6
			c1.671,0,4.181,0.058,7.531,0.177c3.349,0.119,5.859,0.178,7.532,0.178c1.457,0,2.186,0,3.643,0c1.406,0,2.108,0.469,2.108,1.402
			C350.94,547.534,350.545,548.447,349.749,549.574z"/>
		<path stroke="#000000" stroke-width="2" stroke-miterlimit="10" d="M370.84,568.918c0,3.294,0.002,4.94,0.002,8.234
			c0,1.381-0.604,2.068-1.812,2.068c-1.406,0-2.108-1.073-2.108-3.226c0-0.269,0.013-0.646,0.04-1.137
			c0.027-0.489,0.039-0.822,0.039-1c-0.008-2.021-0.013-3.031-0.021-5.054c-3.511-0.099-5.266-0.146-8.775-0.246
			c-1.818,0-3.078-0.065-3.78-0.197c-1.202-0.227-1.813-0.751-1.813-1.582c0-0.668,0.363-1.515,1.095-2.537
			c0.685-0.908,1.027-1.361,1.712-2.271c3.916-6.393,5.874-9.59,9.79-15.982c0.889-1.379,2.02-2.07,3.385-2.07
			c1.499,0,2.248,0.729,2.248,2.181c0,7.399,0,11.102,0,18.5c0.227-0.014,0.498-0.023,0.816-0.023c2.439,0,3.663,0.734,3.663,2.204
			c0,1.067-0.516,1.739-1.516,2.025C373.358,568.936,372.366,568.977,370.84,568.918z M366.98,550.086
			c-3.542,6.322-6.309,11.056-8.299,14.201c3.319,0.09,4.979,0.133,8.299,0.223C366.98,558.74,366.98,555.855,366.98,550.086z"/>
	</g>
</g>
</svg>
